#tb 0: 1/25
#media_type 0: video
#codec_id 0: rawvideo
#dimensions 0: 176x288
#sar 0: 0/1
0,          0,          0,        1,   152064, 0xc6bac29b
0,          1,          1,        1,   152064, 0x6d4b5734
0,          2,          2,        1,   152064, 0x411e87a8
0,          3,          3,        1,   152064, 0x80ea82c8
0,          4,          4,        1,   152064, 0xb960bfca
